<svg xmlns="http://www.w3.org/2000/svg" width="32" height="32" viewBox="0 0 32 32">
  <defs>
    <linearGradient id="bgGradient" x1="0%" y1="0%" x2="100%" y2="100%">
      <stop offset="0%" style="stop-color:#dc2626;stop-opacity:1" />
      <stop offset="50%" style="stop-color:#b91c1c;stop-opacity:1" />
      <stop offset="100%" style="stop-color:#991b1b;stop-opacity:1" />
    </linearGradient>
    <linearGradient id="scaleGradient" x1="0%" y1="0%" x2="100%" y2="100%">
      <stop offset="0%" style="stop-color:#ffffff;stop-opacity:1" />
      <stop offset="100%" style="stop-color:#f8fafc;stop-opacity:1" />
    </linearGradient>
    <filter id="shadow" x="-20%" y="-20%" width="140%" height="140%">
      <feDropShadow dx="0" dy="1" stdDeviation="1" flood-color="#000000" flood-opacity="0.3"/>
    </filter>
  </defs>
  
  <!-- Background circle with gradient -->
  <circle cx="16" cy="16" r="15" fill="url(#bgGradient)" stroke="#7f1d1d" stroke-width="0.5"/>
  
  <!-- Scales of Justice - Professional Design -->
  <g transform="translate(16, 16)" filter="url(#shadow)">
    <!-- Main vertical support -->
    <line x1="0" y1="-8" x2="0" y2="8" stroke="url(#scaleGradient)" stroke-width="2.5" stroke-linecap="round"/>
    
    <!-- Horizontal beam -->
    <line x1="-8" y1="-8" x2="8" y2="-8" stroke="url(#scaleGradient)" stroke-width="2.5" stroke-linecap="round"/>
    
    <!-- Left scale chain -->
    <line x1="-8" y1="-8" x2="-10" y2="-4" stroke="url(#scaleGradient)" stroke-width="1.5" stroke-linecap="round"/>
    <line x1="-8" y1="-8" x2="-6" y2="-4" stroke="url(#scaleGradient)" stroke-width="1.5" stroke-linecap="round"/>
    
    <!-- Right scale chain -->
    <line x1="8" y1="-8" x2="10" y2="-4" stroke="url(#scaleGradient)" stroke-width="1.5" stroke-linecap="round"/>
    <line x1="8" y1="-8" x2="6" y2="-4" stroke="url(#scaleGradient)" stroke-width="1.5" stroke-linecap="round"/>
    
    <!-- Left scale pan -->
    <ellipse cx="-8" cy="-2" rx="3" ry="1.5" fill="url(#scaleGradient)" stroke="#e2e8f0" stroke-width="0.5"/>
    <line x1="-11" y1="-2" x2="-5" y2="-2" stroke="url(#scaleGradient)" stroke-width="1" stroke-linecap="round"/>
    
    <!-- Right scale pan -->
    <ellipse cx="8" cy="-2" rx="3" ry="1.5" fill="url(#scaleGradient)" stroke="#e2e8f0" stroke-width="0.5"/>
    <line x1="5" y1="-2" x2="11" y2="-2" stroke="url(#scaleGradient)" stroke-width="1" stroke-linecap="round"/>
    
    <!-- Center pivot point -->
    <circle cx="0" cy="-8" r="1.5" fill="url(#scaleGradient)" stroke="#7f1d1d" stroke-width="0.5"/>
    
    <!-- Base support -->
    <rect x="-1" y="6" width="2" height="3" fill="url(#scaleGradient)" rx="0.5"/>
  </g>
  
  <!-- Subtle highlight -->
  <circle cx="12" cy="12" r="2" fill="#ffffff" opacity="0.2"/>
</svg>
